<svg xmlns="http://www.w3.org/2000/svg" xml:space="preserve" style="enable-background:new 0 0 780.8 642.9" viewBox="0 0 780.8 642.9"><path d="M401.5 148.7v119.1H371V148.7h-57v-26.5h87.5v26.5z"/><circle cx="447.7" cy="138.8" r="17.2"/><path d="M390.3 25.8c86.7 0 157 70.3 157 157s-70.2 157.1-157 157.1-157-70.3-157-157c.2-86.8 70.4-157 157-157.1m0-25.8C289.4 0 207.6 81.8 207.6 182.8s81.8 182.9 182.8 182.9 182.9-81.8 182.9-182.9S491.4 0 390.3 0zM234.5 597v13.6c2.4-3.2 5.6-4.5 9.1-4.5 7.6 0 12.3 6.1 12.3 14 0 8-4.7 14.1-12.3 14.1-3.5 0-6.7-1.3-9.1-4.5v4h-5.7V597h5.7zm7.8 32.1c5.1 0 7.6-4 7.6-8.9s-2.4-9-7.6-9c-5.1 0-7.8 4.1-7.8 9s2.7 8.9 7.8 8.9zm32.1 5.5c-2.1 5.5-4.4 8.3-9.6 8.3-2.4 0-4.4-.6-6.1-1.8l2.3-4c.9.7 2 1.1 3.2 1.1 2.2 0 3.3-1.6 4.2-3.5l.7-1.5-11.1-26.6h6.5l7.7 19.4 6.9-19.4h6.1l-10.8 28zm45.4-2.5c-1.7 1.3-3.8 2-6.4 2-3.3 0-5.8-1.1-7.3-3.4-.9-1.4-1.3-3-1.3-5.7v-14h-4.5v-4.4h4.5v-7.2h5.7v7.2h8.3v4.4h-8.3v14.1c0 2.7 1.3 4 3.6 4 1.5 0 2.6-.6 3.4-1.2l2.3 4.2zm19.6-19.6c-.9-.4-1.8-.8-3.1-.8-3.4 0-6.5 3-6.5 8.1v13.7h-5.7v-26.9h5.7v4.4c1.8-2.8 4.4-4.8 7.6-4.8 1.5 0 2.8.4 3.6.9l-1.6 5.4zm27.2 21.4c-2.5 0-4.8-1.2-5.4-4-2.2 3.2-5.8 4.2-8.9 4.2-5.5 0-9.2-3-9.2-8.3 0-6.7 5.9-7.7 10.5-8.2 3.9-.4 6.8-.8 6.8-3.4 0-2.7-3-3.4-5.5-3.4-2.8 0-5.9.9-8.4 2.7l-2.3-4.2c3.3-2.1 6.9-3.3 11-3.3 6.4 0 10.8 2.6 10.8 9v12.2c0 1.7.6 2.4 1.9 2.4.5 0 1.1-.1 1.5-.4l.6 3.9c-.8.6-2.4.8-3.4.8zm-6.2-14.7c-1.6 2-3.8 2-6.7 2.4s-5 1.3-5 4.1 2.1 4 4.9 4c3.5 0 6.8-1.9 6.8-6.4v-4.1zm14 14.3v-26.9h5.7v4c2.2-2.9 5.2-4.5 8.8-4.5 5.9 0 9.3 4 9.3 10v17.5h-5.7v-16.2c0-2.8-.9-6.1-5.3-6.1-4 0-7.1 2.8-7.1 7.3v15l-5.7-.1zm41 .6c-5.5 0-9.9-2.1-12.5-6.1l4-2.8c2 2.8 5.3 4.2 8.8 4.2 3.3 0 5.6-1.2 5.6-3.6 0-2.4-2.4-3-6.8-3.7-5.7-1-10.1-2.6-10.1-8.1 0-5.6 5-8.1 10.5-8.1 5.4 0 9.3 2.4 11.6 4.7l-3.6 3.3c-1.8-2-4.7-3.4-8.1-3.4-2.6 0-5 .9-5 3 0 2.4 2.8 2.8 6.4 3.5 5.7 1 10.6 2.5 10.6 8.2.1 5.4-4.2 8.9-11.4 8.9zm17.3-.6V597h5.7v36.5h-5.7zm34.7.4c-2.5 0-4.8-1.2-5.4-4-2.2 3.2-5.8 4.2-8.9 4.2-5.5 0-9.2-3-9.2-8.3 0-6.7 5.9-7.7 10.5-8.2 3.9-.4 6.8-.8 6.8-3.4 0-2.7-3-3.4-5.5-3.4-2.8 0-5.9.9-8.4 2.7l-2.3-4.2c3.3-2.1 6.9-3.3 11-3.3 6.4 0 10.8 2.6 10.8 9v12.2c0 1.7.6 2.4 1.9 2.4.5 0 1.1-.1 1.5-.4l.6 3.9c-.9.6-2.4.8-3.4.8zm-6.2-14.7c-1.6 2-3.8 2-6.7 2.4s-5 1.3-5 4.1 2.1 4 4.9 4c3.5 0 6.8-1.9 6.8-6.4v-4.1zm30.3 12.9c-1.7 1.3-3.8 2-6.4 2-3.3 0-5.8-1.1-7.3-3.4-.9-1.4-1.3-3-1.3-5.7v-14H472v-4.4h4.5v-7.2h5.7v7.2h8.3v4.4h-8.3v14.1c0 2.7 1.3 4 3.6 4 1.5 0 2.6-.6 3.4-1.2l2.3 4.2zm29.3-10.7h-20.5c.3 4.9 3.5 7.6 8.2 7.6 3.2 0 5.8-1.2 7.8-3.4l3.7 3.5c-2.8 3-6.5 4.8-11.7 4.8-9.1 0-14.1-6-14.1-13.9 0-8 5.1-14.2 13.5-14.2 8.1 0 13.1 5.8 13.1 13.5.1 1 0 1.7 0 2.1zm-5.6-4.1c-.4-4.5-3.5-6.8-7.4-6.8-4.2 0-7.1 2.8-7.4 6.8h14.8zm31 16.2v-4c-2.4 3.2-5.6 4.5-9.1 4.5-7.6 0-12.3-6.1-12.3-14 0-8 4.7-14.1 12.3-14.1 3.5 0 6.7 1.3 9.1 4.5v-13.6h5.7v36.5l-5.7.2zm-7.8-22.4c-5.1 0-7.6 4-7.6 9s2.4 8.9 7.6 8.9c5.2 0 7.8-4 7.8-8.9 0-5-2.7-9-7.8-9zM0 572v-81.1h17v11.5c6.6-8.6 14.8-13.4 25.3-13.4 11.9 0 20.1 5.6 23.5 15.4 7.2-10 17-15.4 28.2-15.4 17.8 0 27.1 11.7 27.1 29.6V572h-17v-49.3c0-8.9-2.5-18.1-15.3-18.1-11.2 0-19.9 8.3-19.9 21.7V572h-17v-49.3c0-8.9-2.5-18.1-15.3-18.1-11.4 0-19.9 8.3-19.9 21.7V572H0zm175.7 1.7c-25.1 0-41-17.6-41-42.2 0-24.8 15.9-42.4 41-42.4s41 17.6 41 42.4c.2 24.7-15.7 42.2-41 42.2zm0-69.9c-14.6 0-23.1 11.9-23.1 27.6 0 15.6 8.3 27.5 23.1 27.5 14.6 0 22.9-11.9 22.9-27.5 0-15.7-8.2-27.6-22.9-27.6zM292.2 572v-11.9c-7.3 9.7-16.8 13.7-27.3 13.7-23.1 0-37.3-18.4-37.3-42.2 0-24 14.2-42.4 37.3-42.4 10.6 0 20.1 4.1 27.3 13.7v-41h17.2v110.3h-17.2v-.2zm-23.7-67.7c-15.4 0-22.9 12.1-22.9 27.1 0 15 7.5 27 22.9 27 15.6 0 23.5-12 23.5-27 .2-15.1-8.1-27.1-23.5-27.1zm135.2 31.3H342c.8 14.8 10.4 23.1 24.8 23.1 9.5 0 17.5-3.7 23.4-10.1l11 10.6c-8.4 8.9-19.8 14.6-35.3 14.6-27.3 0-42.4-18.1-42.4-41.9 0-24 15.3-42.7 40.7-42.7 24.5 0 39.5 17.5 39.5 40.7.3 2.3.2 4.4 0 5.7zm-16.8-12.3c-1.2-13.6-10.6-20.6-22.3-20.6-12.8 0-21.5 8.4-22.4 20.6h44.7zm76.7-14.5c-2.6-1.4-5.6-2.5-9.2-2.5-10.3 0-19.5 8.9-19.5 24.3v41.2h-17v-81.1h17v13.1c5.5-8.4 13.4-14.6 22.9-14.6 4.5 0 8.4 1.2 10.8 2.8l-5 16.8zm17 63.2v-81.1h17v11.9c6.7-8.8 15.6-13.7 26.5-13.7 17.8 0 27.9 11.9 27.9 30.1V572h-17v-49c0-8.6-2.8-18.4-16.1-18.4-12 0-21.5 8.4-21.5 22V572h-16.8z"/><path d="M663.5 572v-83.9L632.9 572h-15.1l-30.4-83.7V572h-17.6V469.2h26.5l29.3 80.3 29.3-80.3h26V572h-17.4zm83.4-87.2v87h-18.1v-87H695v-15.7h85.8v15.7h-33.9z" style="fill:#6610f2"/></svg>